<?xml version="1.0" encoding="utf-8"?>
<!-- Generator: Adobe Illustrator 24.0.0, SVG Export Plug-In . SVG Version: 6.00 Build 0)  -->
<svg version="1.1" id="图层_1" xmlns="http://www.w3.org/2000/svg" xmlns:xlink="http://www.w3.org/1999/xlink" x="0px" y="0px"
	 viewBox="0 0 512 512" style="enable-background:new 0 0 512 512;" xml:space="preserve">
<style type="text/css">
	.st0{fill:#FF31A5;}
</style>
<path class="st0" d="M32,64C32,28.7,60.7,0,96,0h160c35.3,0,64,28.7,64,64v192h8c48.6,0,88,39.4,88,88v32c0,13.3,10.7,24,24,24
	s24-10.7,24-24V222c-27.6-7.1-48-32.2-48-62V96l-32-32c-8.8-8.8-8.8-23.2,0-32s23.2-8.8,32,0l77.3,77.3c12,12,18.7,28.3,18.7,45.3
	v13.5v24v32v152c0,39.8-32.2,72-72,72s-72-32.2-72-72v-32c0-22.1-17.9-40-40-40h-8v144c17.7,0,32,14.3,32,32s-14.3,32-32,32L32,512
	c-17.7,0-32-14.3-32-32s14.3-32,32-32V64z M96,80v96c0,8.8,7.2,16,16,16h128c8.8,0,16-7.2,16-16V80c0-8.8-7.2-16-16-16H112
	C103.2,64,96,71.2,96,80z"/>
</svg>
