<?xml version="1.0" encoding="utf-8"?>
<!-- Generator: Adobe Illustrator 24.0.0, SVG Export Plug-In . SVG Version: 6.00 Build 0)  -->
<svg version="1.1" id="图层_1" xmlns="http://www.w3.org/2000/svg" xmlns:xlink="http://www.w3.org/1999/xlink" x="0px" y="0px"
	 viewBox="0 0 640 512" style="enable-background:new 0 0 640 512;" xml:space="preserve">
<style type="text/css">
	.st0{fill:#FF31A5;}
</style>
<path class="st0" d="M32,32C14.3,32,0,46.3,0,64v384c0,17.7,14.3,32,32,32s32-14.3,32-32V266.3L149.2,96H64V64
	C64,46.3,49.7,32,32,32z M405.2,96h-74.3l-5.4,10.7L234.8,288h74.3l5.4-10.7L405.2,96z M362.8,288h74.3l5.4-10.7L533.2,96h-74.3
	l-5.4,10.7L362.8,288z M202.8,96l-5.4,10.7L106.8,288h74.3l5.4-10.7L277.2,96h-74.3H202.8z M490.8,288H576v160c0,17.7,14.3,32,32,32
	s32-14.3,32-32V64c0-17.7-14.3-32-32-32s-32,14.3-32,32v53.7L490.8,288z"/>
</svg>
