<?xml version="1.0" encoding="utf-8"?>
<!-- Generator: Adobe Illustrator 24.0.0, SVG Export Plug-In . SVG Version: 6.00 Build 0)  -->
<svg version="1.1" xmlns="http://www.w3.org/2000/svg" xmlns:xlink="http://www.w3.org/1999/xlink" x="0px" y="0px"
	 viewBox="0 0 133.33 110" style="enable-background:new 0 0 133.33 110;" xml:space="preserve">
<style type="text/css">
	.st0{display:none;}
	.st1{display:inline;fill:url(#SVGID_1_);}
	.st2{fill:#C8DAEA;}
	.st3{fill:#A9C6D8;}
	.st4{fill:#FFFFFF;}
</style>
<g id="Слой_2" class="st0">
	<linearGradient id="SVGID_1_" gradientUnits="userSpaceOnUse" x1="72.6689" y1="172.0011" x2="72.6689" y2="-63.9989">
		<stop  offset="0" style="stop-color:#1D93D2"/>
		<stop  offset="1" style="stop-color:#38B0E3"/>
	</linearGradient>
	<circle class="st1" cx="72.67" cy="54" r="118"/>
</g>
<g id="Слой_6">
	<path class="st2" d="M34.54,62.63l14,38.75c0,0,1.75,3.63,3.63,3.63s29.75-29,29.75-29l31-59.88l-77.88,36.5L34.54,62.63z"/>
</g>
<g id="Слой_7">
	<path class="st3" d="M53.11,72.56l-2.69,28.56c0,0-1.13,8.75,7.63,0s17.13-15.5,17.13-15.5"/>
</g>
<g id="Слой_5">
	<g>
		<path class="st4" d="M34.8,64.01L6,54.63c0,0-3.44-1.4-2.33-4.56c0.23-0.65,0.69-1.21,2.06-2.17c6.38-4.45,118.1-44.6,118.1-44.6
			s3.16-1.06,5.02-0.36c0.85,0.32,1.4,0.69,1.85,2.02c0.17,0.48,0.26,1.52,0.25,2.54c-0.01,0.74-0.1,1.42-0.17,2.5
			c-0.68,10.98-21.04,92.92-21.04,92.92s-1.22,4.79-5.58,4.96c-1.59,0.06-3.52-0.26-5.83-2.25c-8.57-7.37-38.17-27.27-44.71-31.64
			c-0.37-0.25-0.47-0.57-0.54-0.88c-0.09-0.46,0.41-1.03,0.41-1.03s51.55-45.82,52.92-50.63c0.11-0.37-0.29-0.56-0.83-0.4
			c-3.42,1.26-62.78,38.74-69.33,42.88C35.87,64.17,34.8,64.01,34.8,64.01z"/>
	</g>
</g>
</svg>
