<svg width="19" height="16" viewBox="0 0 19 16" fill="none" xmlns="http://www.w3.org/2000/svg">
<path d="M18.9539 2.61296C18.2682 2.90402 17.5317 3.0999 16.7586 3.18824C17.5482 2.73624 18.1536 2.02057 18.4388 1.16724C17.7008 1.58568 16.8826 1.88976 16.0114 2.05412C15.3143 1.34393 14.3212 0.900146 13.2222 0.900146C11.1115 0.900146 9.4006 2.53626 9.4006 4.55315C9.4006 4.83942 9.43499 5.11884 9.49947 5.38524C6.3234 5.23321 3.50772 3.77858 1.62199 1.56788C1.29385 2.10754 1.10542 2.73486 1.10542 3.40533C1.10542 4.67231 1.77961 5.79067 2.80486 6.4454C2.17868 6.42622 1.58903 6.26185 1.0739 5.9886C1.0739 6.00435 1.0739 6.01873 1.0739 6.03449C1.0739 7.80482 2.39075 9.28137 4.13963 9.61626C3.81937 9.69981 3.48121 9.74433 3.13229 9.74433C2.88654 9.74433 2.64653 9.72104 2.41368 9.67927C2.90016 11.1304 4.31159 12.1872 5.9838 12.2166C4.67626 13.1967 3.02841 13.7808 1.23725 13.7808C0.929171 13.7808 0.624676 13.7637 0.325195 13.7295C2.01675 14.7656 4.02499 15.3704 6.1837 15.3704C13.2136 15.3704 17.0567 9.80391 17.0567 4.97639C17.0567 4.81818 17.0531 4.66067 17.046 4.50384C17.7932 3.98814 18.4416 3.34507 18.9539 2.61296Z" fill="white"/>
</svg>
