<svg width="180" height="54" viewBox="0 0 180 54" fill="none" xmlns="http://www.w3.org/2000/svg">
<g clip-path="url(#clip0_34_4492)">
<g clip-path="url(#clip1_34_4492)">
<path d="M172.748 53.3335H6.7625C3.31361 53.3335 0.506348 50.5139 0.506348 47.0623V6.59545C0.506348 3.1425 3.31361 0.333496 6.7625 0.333496H172.748C176.196 0.333496 179.102 3.1425 179.102 6.59545V47.0623C179.102 50.5139 176.196 53.3335 172.748 53.3335Z" fill="#A6A6A6"/>
<path d="M177.821 47.0631C177.821 49.8668 175.554 52.1379 172.749 52.1379H6.76209C3.95879 52.1379 1.68335 49.8668 1.68335 47.0631V6.59366C1.68335 3.79128 3.95879 1.51228 6.76209 1.51228H172.748C175.554 1.51228 177.82 3.79128 177.82 6.59366L177.821 47.0631Z" fill="white"/>
<path d="M40.3639 26.5475C40.3256 22.277 43.8552 20.1994 44.0166 20.1027C42.0176 17.1837 38.9193 16.7849 37.8305 16.7531C35.2283 16.4788 32.7042 18.3126 31.3786 18.3126C30.0265 18.3126 27.9853 16.7796 25.7852 16.8247C22.9541 16.8684 20.3056 18.5101 18.853 21.0594C15.8553 26.2573 18.091 33.896 20.9631 38.0975C22.3998 40.1553 24.0786 42.4528 26.276 42.372C28.4258 42.2832 29.2288 40.9993 31.8231 40.9993C34.3935 40.9993 35.1476 42.372 37.3887 42.3203C39.6959 42.2832 41.1484 40.2533 42.5349 38.177C44.1951 35.8185 44.8619 33.4958 44.8884 33.3766C44.8341 33.358 40.4076 31.666 40.3639 26.5475Z" fill="black"/>
<path d="M36.1304 13.9886C37.2867 12.5404 38.0778 10.5701 37.8582 8.57071C36.1847 8.64491 34.0918 9.73008 32.8866 11.1465C31.8203 12.3947 30.8678 14.4405 31.1139 16.3644C32.9937 16.5048 34.9239 15.4143 36.1304 13.9886Z" fill="black"/>
<path d="M71.4755 42.0764H68.4711L66.8253 36.897H61.105L59.5373 42.0764H56.6123L62.2798 24.4433H65.7802L71.4755 42.0764ZM66.3292 34.724L64.8409 30.1196C64.6835 29.6492 64.3885 28.5415 63.9533 26.7978H63.9003C63.727 27.5478 63.4479 28.6555 63.0642 30.1196L61.6024 34.724H66.3292Z" fill="black"/>
<path d="M86.0499 35.5622C86.0499 37.7246 85.4665 39.4339 84.2997 40.6887C83.2546 41.8056 81.9568 42.3635 80.4076 42.3635C78.7354 42.3635 77.5342 41.7619 76.8026 40.5588H76.7497V47.2567H73.9292V33.5469C73.9292 32.1875 73.8935 30.7922 73.8247 29.3612H76.3052L76.4626 31.3766H76.5156C77.4562 29.8581 78.8836 29.1002 80.7992 29.1002C82.2968 29.1002 83.5469 29.6925 84.5471 30.8784C85.5499 32.0656 86.0499 33.6264 86.0499 35.5622ZM83.1765 35.6656C83.1765 34.428 82.8987 33.4078 82.3404 32.6048C81.7306 31.7674 80.9117 31.3487 79.8851 31.3487C79.1892 31.3487 78.5568 31.5819 77.9919 32.0417C77.4257 32.5055 77.0553 33.111 76.882 33.8609C76.7947 34.2107 76.751 34.4969 76.751 34.7222V36.8422C76.751 37.767 77.0341 38.5475 77.6004 39.1848C78.1666 39.8221 78.9021 40.1401 79.807 40.1401C80.8693 40.1401 81.6962 39.7294 82.2875 38.9105C82.8802 38.0903 83.1765 37.0091 83.1765 35.6656Z" fill="black"/>
<path d="M100.651 35.5622C100.651 37.7246 100.068 39.4339 98.8996 40.6887C97.8558 41.8056 96.558 42.3635 95.0088 42.3635C93.3366 42.3635 92.1354 41.7619 91.4052 40.5588H91.3522V47.2567H88.5318V33.5469C88.5318 32.1875 88.496 30.7922 88.4272 29.3612H90.9077L91.0652 31.3766H91.1181C92.0574 29.8581 93.4848 29.1002 95.4018 29.1002C96.898 29.1002 98.1482 29.6925 99.1509 30.8784C100.15 32.0656 100.651 33.6264 100.651 35.5622ZM97.7777 35.6656C97.7777 34.428 97.4986 33.4078 96.9403 32.6048C96.3304 31.7674 95.5142 31.3487 94.4863 31.3487C93.7891 31.3487 93.1581 31.5819 92.5918 32.0417C92.0256 32.5055 91.6565 33.111 91.4832 33.8609C91.3972 34.2107 91.3522 34.4969 91.3522 34.7222V36.8422C91.3522 37.767 91.6354 38.5475 92.1989 39.1848C92.7651 39.8208 93.5007 40.1401 94.4082 40.1401C95.4705 40.1401 96.2974 39.7294 96.8887 38.9105C97.4814 38.0903 97.7777 37.0091 97.7777 35.6656Z" fill="black"/>
<path d="M116.977 37.1311C116.977 38.631 116.457 39.8513 115.413 40.7934C114.266 41.8229 112.669 42.337 110.617 42.337C108.723 42.337 107.204 41.9713 106.054 41.2386L106.708 38.8841C107.946 39.634 109.305 40.0103 110.785 40.0103C111.848 40.0103 112.674 39.7692 113.268 39.2895C113.86 38.8099 114.155 38.1659 114.155 37.363C114.155 36.6475 113.911 36.0446 113.423 35.5557C112.938 35.0667 112.127 34.6123 110.994 34.1923C107.912 33.0408 106.372 31.3541 106.372 29.1361C106.372 27.6865 106.912 26.498 107.993 25.5731C109.069 24.6469 110.506 24.1845 112.303 24.1845C113.905 24.1845 115.236 24.4641 116.298 25.0219L115.593 27.3248C114.601 26.7842 113.479 26.5139 112.223 26.5139C111.231 26.5139 110.456 26.759 109.9 27.2466C109.431 27.6825 109.195 28.2139 109.195 28.8432C109.195 29.5402 109.464 30.1165 110.003 30.5697C110.473 30.9884 111.326 31.4416 112.565 31.9305C114.079 32.5413 115.192 33.2555 115.908 34.0743C116.621 34.8905 116.977 35.9121 116.977 37.1311Z" fill="black"/>
<path d="M126.302 31.4808H123.193V37.654C123.193 39.2241 123.741 40.0085 124.839 40.0085C125.343 40.0085 125.761 39.9648 126.091 39.8773L126.169 42.0225C125.614 42.2305 124.882 42.3352 123.976 42.3352C122.862 42.3352 121.992 41.9947 121.363 41.315C120.738 40.6339 120.423 39.4918 120.423 37.8872V31.4782H118.571V29.3582H120.423V27.0301L123.193 26.1927V29.3582H126.302V31.4808Z" fill="black"/>
<path d="M140.329 35.6139C140.329 37.5683 139.77 39.1728 138.656 40.4276C137.488 41.7195 135.938 42.3634 134.005 42.3634C132.142 42.3634 130.659 41.7447 129.553 40.5071C128.447 39.2696 127.894 37.7074 127.894 35.8246C127.894 33.8543 128.463 32.2404 129.605 30.9857C130.744 29.7296 132.281 29.1015 134.214 29.1015C136.077 29.1015 137.576 29.7203 138.707 30.9592C139.789 32.1609 140.329 33.7125 140.329 35.6139ZM137.402 35.7053C137.402 34.5327 137.152 33.527 136.645 32.6883C136.054 31.6733 135.209 31.1672 134.113 31.1672C132.98 31.1672 132.118 31.6747 131.527 32.6883C131.02 33.5283 130.77 34.5499 130.77 35.7583C130.77 36.9309 131.02 37.9366 131.527 38.774C132.137 39.789 132.989 40.2951 134.088 40.2951C135.165 40.2951 136.01 39.7784 136.62 38.7475C137.14 37.8929 137.402 36.8766 137.402 35.7053Z" fill="black"/>
<path d="M149.497 31.8456C149.218 31.7939 148.92 31.7674 148.608 31.7674C147.616 31.7674 146.849 32.1424 146.309 32.8937C145.839 33.5562 145.604 34.3936 145.604 35.4046V42.0759H142.784L142.811 33.3654C142.811 31.8999 142.775 30.5657 142.705 29.3626H145.162L145.265 31.7953H145.343C145.641 30.9592 146.11 30.2861 146.753 29.7813C147.382 29.3268 148.06 29.1002 148.792 29.1002C149.053 29.1002 149.288 29.1188 149.497 29.1519V31.8456Z" fill="black"/>
<path d="M162.111 35.1176C162.111 35.6238 162.078 36.0504 162.007 36.3989H153.546C153.579 37.655 153.988 38.6156 154.774 39.2781C155.487 39.8704 156.409 40.1672 157.541 40.1672C158.794 40.1672 159.937 39.9671 160.965 39.5656L161.407 41.5266C160.206 42.0513 158.787 42.3124 157.151 42.3124C155.182 42.3124 153.637 41.732 152.513 40.5726C151.391 39.4133 150.829 37.8564 150.829 35.9033C150.829 33.9861 151.351 32.3894 152.398 31.1161C153.493 29.7567 154.973 29.0769 156.836 29.0769C158.666 29.0769 160.051 29.7567 160.991 31.1161C161.736 32.196 162.111 33.5316 162.111 35.1176ZM159.421 34.3849C159.44 33.5475 159.256 32.824 158.873 32.2132C158.385 31.4275 157.635 31.0353 156.626 31.0353C155.704 31.0353 154.954 31.4182 154.381 32.1867C153.911 32.7975 153.632 33.5303 153.546 34.3836L159.421 34.3849Z" fill="black"/>
<path d="M65.3966 13.5945C65.3966 15.154 64.9296 16.328 63.9969 17.1163C63.133 17.8438 61.9053 18.2081 60.3152 18.2081C59.5267 18.2081 58.852 18.1737 58.2871 18.1048V9.58372C59.024 9.46447 59.8177 9.40352 60.675 9.40352C62.1898 9.40352 63.3315 9.73344 64.1014 10.3933C64.964 11.1393 65.3966 12.2059 65.3966 13.5945ZM63.9347 13.6329C63.9347 12.6219 63.6675 11.8468 63.133 11.3062C62.5986 10.7669 61.818 10.4966 60.7901 10.4966C60.3535 10.4966 59.9818 10.5258 59.6735 10.5867V17.0647C59.8442 17.0912 60.1564 17.1031 60.6102 17.1031C61.6712 17.1031 62.4901 16.8076 63.0669 16.2167C63.6437 15.6257 63.9347 14.7645 63.9347 13.6329Z" fill="black"/>
<path d="M73.1478 14.957C73.1478 15.9177 72.8739 16.7047 72.3262 17.3222C71.7521 17.9568 70.9914 18.2735 70.0415 18.2735C69.1261 18.2735 68.3971 17.9701 67.8534 17.3606C67.311 16.7524 67.0398 15.9852 67.0398 15.0604C67.0398 14.0931 67.3189 13.2995 67.8799 12.6833C68.4408 12.0672 69.1949 11.7585 70.1447 11.7585C71.0602 11.7585 71.7957 12.0619 72.3527 12.6701C72.8819 13.261 73.1478 14.0242 73.1478 14.957ZM71.7097 15.0021C71.7097 14.4257 71.5854 13.9315 71.338 13.5194C71.047 13.0212 70.6329 12.7721 70.0944 12.7721C69.5375 12.7721 69.1142 13.0212 68.8231 13.5194C68.5744 13.9315 68.4514 14.4337 68.4514 15.0273C68.4514 15.6036 68.5757 16.0979 68.8231 16.5099C69.1234 17.0081 69.5415 17.2572 70.0812 17.2572C70.6104 17.2572 71.0258 17.0042 71.3248 16.4967C71.5814 16.0767 71.7097 15.5785 71.7097 15.0021Z" fill="black"/>
<path d="M83.5403 11.8853L81.5889 18.1313H80.3189L79.5106 15.4191C79.3056 14.742 79.1389 14.0689 79.0092 13.4011H78.9841C78.8637 14.0874 78.697 14.7592 78.4827 15.4191L77.6241 18.1313H76.3395L74.5046 11.8853H75.9294L76.6346 14.8546C76.8052 15.5569 76.9455 16.226 77.0579 16.8593H77.083C77.1862 16.3373 77.3569 15.6722 77.5977 14.8679L78.4827 11.8866H79.6125L80.4605 14.8043C80.6655 15.5158 80.8322 16.2008 80.9605 16.8607H80.9989C81.0928 16.218 81.2344 15.533 81.4223 14.8043L82.179 11.8866H83.5403V11.8853Z" fill="black"/>
<path d="M90.7276 18.1318H89.3412V14.5543C89.3412 13.4519 88.9231 12.9007 88.0844 12.9007C87.6729 12.9007 87.3409 13.0518 87.0829 13.3552C86.8276 13.6586 86.6979 14.0164 86.6979 14.4258V18.1305H85.3115V13.6706C85.3115 13.122 85.2943 12.5271 85.2612 11.8831H86.4796L86.5445 12.8597H86.5828C86.7442 12.5562 86.985 12.3058 87.3012 12.1057C87.6769 11.8725 88.0976 11.7546 88.558 11.7546C89.1401 11.7546 89.6243 11.9428 90.0092 12.3204C90.4881 12.7828 90.7276 13.4731 90.7276 14.39V18.1318Z" fill="black"/>
<path d="M94.5516 18.1312H93.1665V9.01921H94.5516V18.1312Z" fill="black"/>
<path d="M102.714 14.957C102.714 15.9177 102.44 16.7047 101.892 17.3222C101.318 17.9568 100.556 18.2735 99.6075 18.2735C98.6907 18.2735 97.9617 17.9701 97.4193 17.3606C96.8769 16.7524 96.6057 15.9852 96.6057 15.0604C96.6057 14.0931 96.8849 13.2995 97.4458 12.6833C98.0067 12.0672 98.7608 11.7585 99.7093 11.7585C100.626 11.7585 101.36 12.0619 101.919 12.6701C102.448 13.261 102.714 14.0242 102.714 14.957ZM101.274 15.0021C101.274 14.4257 101.15 13.9315 100.903 13.5194C100.613 13.0212 100.197 12.7721 99.6604 12.7721C99.1021 12.7721 98.6787 13.0212 98.389 13.5194C98.1403 13.9315 98.0173 14.4337 98.0173 15.0273C98.0173 15.6036 98.1416 16.0979 98.389 16.5099C98.6893 17.0081 99.1074 17.2572 99.6471 17.2572C100.176 17.2572 100.59 17.0042 100.889 16.4967C101.147 16.0767 101.274 15.5785 101.274 15.0021Z" fill="black"/>
<path d="M109.424 18.1317H108.179L108.076 17.4123H108.038C107.612 17.986 107.004 18.2735 106.216 18.2735C105.627 18.2735 105.151 18.084 104.792 17.7077C104.467 17.3659 104.304 16.9406 104.304 16.4357C104.304 15.6725 104.622 15.0909 105.261 14.6881C105.898 14.2853 106.795 14.0878 107.95 14.0971V13.9805C107.95 13.1577 107.519 12.7469 106.655 12.7469C106.04 12.7469 105.497 12.902 105.029 13.2094L104.747 12.2978C105.327 11.9387 106.043 11.7585 106.887 11.7585C108.516 11.7585 109.334 12.6197 109.334 14.3422V16.6424C109.334 17.2665 109.364 17.7634 109.424 18.1317ZM107.985 15.9852V15.022C106.455 14.9955 105.691 15.4155 105.691 16.2807C105.691 16.6067 105.778 16.8505 105.957 17.0134C106.135 17.1764 106.363 17.2572 106.634 17.2572C106.938 17.2572 107.223 17.1605 107.482 16.9684C107.743 16.7749 107.903 16.5298 107.962 16.229C107.977 16.1615 107.985 16.0793 107.985 15.9852Z" fill="black"/>
<path d="M117.302 18.1312H116.072L116.007 17.1282H115.969C115.576 17.8914 114.906 18.273 113.966 18.273C113.214 18.273 112.589 17.9775 112.093 17.3866C111.597 16.7956 111.349 16.0285 111.349 15.0864C111.349 14.0754 111.618 13.2566 112.157 12.6312C112.68 12.0482 113.32 11.7567 114.082 11.7567C114.92 11.7567 115.506 12.0389 115.839 12.6047H115.866V9.01921H117.253V16.4485C117.253 17.0567 117.269 17.6171 117.302 18.1312ZM115.866 15.4971V14.4557C115.866 14.2755 115.852 14.1297 115.827 14.0184C115.749 13.6845 115.581 13.4036 115.326 13.1771C115.068 12.9505 114.757 12.8365 114.398 12.8365C113.881 12.8365 113.476 13.0419 113.179 13.454C112.884 13.8661 112.734 14.3921 112.734 15.0347C112.734 15.6522 112.876 16.153 113.16 16.5386C113.461 16.9493 113.865 17.1547 114.372 17.1547C114.827 17.1547 115.191 16.9838 115.467 16.6406C115.735 16.3239 115.866 15.9423 115.866 15.4971Z" fill="black"/>
<path d="M129.16 14.957C129.16 15.9177 128.886 16.7047 128.338 17.3222C127.764 17.9568 127.004 18.2735 126.053 18.2735C125.139 18.2735 124.41 17.9701 123.865 17.3606C123.323 16.7524 123.052 15.9852 123.052 15.0604C123.052 14.0931 123.331 13.2995 123.892 12.6833C124.453 12.0672 125.207 11.7585 126.158 11.7585C127.072 11.7585 127.809 12.0619 128.364 12.6701C128.894 13.261 129.16 14.0242 129.16 14.957ZM127.723 15.0021C127.723 14.4257 127.598 13.9315 127.351 13.5194C127.059 13.0212 126.646 12.7721 126.106 12.7721C125.551 12.7721 125.127 13.0212 124.835 13.5194C124.586 13.9315 124.463 14.4337 124.463 15.0273C124.463 15.6036 124.587 16.0979 124.835 16.5099C125.135 17.0081 125.553 17.2572 126.093 17.2572C126.622 17.2572 127.039 17.0042 127.338 16.4967C127.593 16.0767 127.723 15.5785 127.723 15.0021Z" fill="black"/>
<path d="M136.614 18.1318H135.229V14.5543C135.229 13.4519 134.811 12.9007 133.971 12.9007C133.56 12.9007 133.227 13.0518 132.971 13.3552C132.714 13.6586 132.586 14.0164 132.586 14.4258V18.1305H131.198V13.6706C131.198 13.122 131.182 12.5271 131.149 11.8831H132.366L132.431 12.8597H132.469C132.632 12.5562 132.873 12.3058 133.188 12.1057C133.565 11.8725 133.984 11.7546 134.446 11.7546C135.027 11.7546 135.511 11.9428 135.896 12.3204C136.376 12.7828 136.614 13.4731 136.614 14.39V18.1318Z" fill="black"/>
<path d="M145.944 12.9256H144.417V15.9599C144.417 16.731 144.689 17.1166 145.226 17.1166C145.474 17.1166 145.681 17.0954 145.844 17.0517L145.879 18.1051C145.605 18.2084 145.246 18.2601 144.802 18.2601C144.255 18.2601 143.829 18.0931 143.521 17.7592C143.211 17.4253 143.057 16.8635 143.057 16.0752V12.9256H142.146V11.8855H143.057V10.7407L144.416 10.33V11.8842H145.943L145.944 12.9256Z" fill="black"/>
<path d="M153.284 18.1312H151.896V14.5802C151.896 13.4606 151.478 12.9001 150.641 12.9001C149.998 12.9001 149.559 13.2248 149.318 13.874C149.277 14.0105 149.253 14.1774 149.253 14.3735V18.1299H147.868V9.01921H149.253V12.7835H149.279C149.716 12.0985 150.342 11.7567 151.153 11.7567C151.727 11.7567 152.202 11.9448 152.579 12.3224C153.049 12.7928 153.284 13.4924 153.284 14.4173V18.1312Z" fill="black"/>
<path d="M160.855 14.7122C160.855 14.9613 160.837 15.1707 160.804 15.3416H156.646C156.664 15.9591 156.863 16.4294 157.248 16.7554C157.599 17.0469 158.053 17.1926 158.609 17.1926C159.224 17.1926 159.785 17.0946 160.29 16.8972L160.507 17.8618C159.916 18.1188 159.22 18.2473 158.414 18.2473C157.449 18.2473 156.688 17.9625 156.138 17.3927C155.585 16.823 155.311 16.0584 155.311 15.0991C155.311 14.1571 155.566 13.3727 156.081 12.7473C156.618 12.0795 157.344 11.7456 158.261 11.7456C159.158 11.7456 159.839 12.0795 160.3 12.7473C160.671 13.2773 160.855 13.9331 160.855 14.7122ZM159.532 14.3532C159.543 13.9411 159.452 13.586 159.264 13.2865C159.023 12.901 158.656 12.7075 158.16 12.7075C157.708 12.7075 157.339 12.8957 157.057 13.2733C156.827 13.5741 156.691 13.9331 156.646 14.3532H159.532Z" fill="black"/>
</g>
</g>
<defs>
<clipPath id="clip0_34_4492">
<rect width="178.596" height="53" fill="white" transform="translate(0.506348 0.333496)"/>
</clipPath>
<clipPath id="clip1_34_4492">
<rect width="178.596" height="53" fill="white" transform="translate(0.506348 0.333496)"/>
</clipPath>
</defs>
</svg>
