<svg width="181" height="54" viewBox="0 0 181 54" fill="none" xmlns="http://www.w3.org/2000/svg">
<g clip-path="url(#clip0_34_4491)">
<g clip-path="url(#clip1_34_4491)">
<path d="M173.847 53.6665H7.44663C3.78575 53.6665 0.790527 50.6666 0.790527 47V7.001C0.790527 3.3344 3.78575 0.334503 7.44663 0.334503H173.847C177.508 0.334503 180.503 3.3344 180.503 7.001V47C180.503 50.6666 177.508 53.6665 173.847 53.6665Z" fill="white"/>
<path d="M173.847 0.334503H7.44663C3.78575 0.334503 0.790527 3.3344 0.790527 7.001V47C0.790527 50.6666 3.78575 53.6665 7.44663 53.6665H173.847C177.508 53.6665 180.503 50.6666 180.503 47V7.001C180.503 3.3344 177.508 0.334503 173.847 0.334503ZM173.847 1.4006C176.93 1.4006 179.438 3.9131 179.438 7.001V47C179.438 50.0879 176.93 52.6004 173.847 52.6004H7.44663C4.36354 52.6004 1.85606 50.0879 1.85606 47V7.001C1.85606 3.9131 4.36354 1.4006 7.44663 1.4006H173.847Z" fill="#A2A2A1"/>
<path d="M143.145 40.3335H145.629V23.6645H143.145V40.3335ZM165.519 29.6695L162.671 36.8959H162.586L159.631 29.6695H156.955L161.388 39.7695L158.86 45.388H161.451L168.281 29.67L165.519 29.6695ZM151.431 38.4401C150.619 38.4401 149.483 38.0322 149.483 37.0245C149.483 35.738 150.897 35.2448 152.116 35.2448C153.208 35.2448 153.723 35.4803 154.386 35.8021C154.193 37.3463 152.866 38.4401 151.431 38.4401ZM151.732 29.3049C149.933 29.3049 148.071 30.0986 147.3 31.857L149.505 32.7788C149.976 31.857 150.853 31.557 151.774 31.557C153.059 31.557 154.365 32.3284 154.386 33.7012V33.8726C153.936 33.6152 152.972 33.2294 151.796 33.2294C149.418 33.2294 146.999 34.5371 146.999 36.9818C146.999 39.212 148.948 40.6489 151.131 40.6489C152.801 40.6489 153.723 39.8984 154.3 39.0188H154.386V40.3062H156.785V33.9152C156.785 30.9559 154.578 29.3049 151.732 29.3049ZM136.38 31.6986H132.847V25.9853H136.38C138.237 25.9853 139.291 27.5249 139.291 28.8419C139.291 30.1336 138.237 31.6986 136.38 31.6986ZM136.316 23.6649H130.364V40.3339H132.847V34.019H136.316C139.069 34.019 141.775 32.0232 141.775 28.8425C141.775 25.6624 139.069 23.6649 136.316 23.6649ZM103.86 38.4429C102.143 38.4429 100.707 37.0033 100.707 35.0279C100.707 33.0295 102.143 31.5696 103.86 31.5696C105.554 31.5696 106.883 33.0296 106.883 35.0279C106.883 37.0033 105.554 38.4429 103.86 38.4429ZM106.712 30.6026H106.626C106.068 29.9369 104.996 29.3354 103.645 29.3354C100.814 29.3354 98.2189 31.8275 98.2189 35.0279C98.2189 38.2065 100.814 40.6767 103.645 40.6767C104.996 40.6767 106.068 40.0751 106.626 39.3882H106.712V40.2038C106.712 42.3741 105.554 43.5334 103.688 43.5334C102.166 43.5334 101.222 42.4381 100.836 41.5146L98.6699 42.4166C99.2913 43.9196 100.942 45.7676 103.688 45.7676C106.605 45.7676 109.072 44.0488 109.072 39.8599V29.6789H106.712L106.712 30.6026ZM110.788 40.333H113.274V23.664H110.788V40.333ZM116.942 34.8342C116.878 32.6431 118.637 31.5264 119.902 31.5264C120.889 31.5264 121.724 32.0207 122.004 32.729L116.942 34.8342ZM124.663 32.9436C124.191 31.677 122.754 29.3354 119.816 29.3354C116.899 29.3354 114.476 31.6337 114.476 35.0061C114.476 38.1852 116.878 40.6768 120.094 40.6768C122.689 40.6768 124.191 39.0878 124.813 38.1638L122.883 36.8748C122.239 37.8201 121.36 38.443 120.094 38.443C118.83 38.443 117.928 37.8629 117.35 36.7244L124.92 33.5885L124.663 32.9436ZM64.3477 31.0754V33.4811H70.0953C69.9237 34.8343 69.4733 35.8222 68.7869 36.5097C67.9502 37.3472 66.642 38.2711 64.3476 38.2711C60.8089 38.2711 58.0425 35.4144 58.0425 31.8702C58.0425 28.326 60.8089 25.4689 64.3476 25.4689C66.2565 25.4689 67.6502 26.2209 68.6797 27.1875L70.3744 25.4902C68.9371 24.1157 67.0287 23.0632 64.3476 23.0632C59.5 23.0632 55.4253 27.0156 55.4253 31.8702C55.4253 36.7243 59.5 40.6768 64.3476 40.6768C66.9638 40.6768 68.9372 39.8175 70.4811 38.2066C72.0682 36.617 72.5616 34.3832 72.5616 32.5786C72.5616 32.0207 72.5184 31.5052 72.4326 31.0754H64.3477ZM79.0967 38.4429C77.3806 38.4429 75.9007 37.0252 75.9007 35.0061C75.9007 32.9655 77.3806 31.5697 79.0967 31.5697C80.8121 31.5697 82.292 32.9655 82.292 35.0061C82.292 37.0252 80.8121 38.4429 79.0967 38.4429ZM79.0967 29.3354C75.9646 29.3354 73.4129 31.7196 73.4129 35.0061C73.4129 38.2711 75.9646 40.6768 79.0967 40.6768C82.2276 40.6768 84.7798 38.2711 84.7798 35.0061C84.7798 31.7196 82.2276 29.3354 79.0967 29.3354ZM91.4943 38.4429C89.7794 38.4429 88.299 37.0252 88.299 35.0061C88.299 32.9655 89.7795 31.5697 91.4943 31.5697C93.2105 31.5697 94.6898 32.9655 94.6898 35.0061C94.6898 37.0252 93.2105 38.4429 91.4943 38.4429ZM91.4943 29.3354C88.3634 29.3354 85.8117 31.7196 85.8117 35.0061C85.8117 38.2711 88.3634 40.6768 91.4943 40.6768C94.6264 40.6768 97.1781 38.2711 97.1781 35.0061C97.1781 31.7196 94.6264 29.3354 91.4943 29.3354Z" fill="black"/>
<path d="M28.3659 26.2325L14.1941 41.2985C14.1946 41.3016 14.1957 41.3042 14.1962 41.3074C14.6308 42.9434 16.1228 44.148 17.8934 44.148C18.6012 44.148 19.2658 43.9563 19.8357 43.6199L19.8809 43.5933L35.834 34.3733L28.3659 26.2325Z" fill="#EB3131"/>
<path d="M42.7045 23.6675L42.691 23.6582L35.8035 19.6592L28.0439 26.5748L35.8305 34.3725L42.6816 30.4133C43.8827 29.7638 44.6981 28.4956 44.6981 27.0331C44.6981 25.5811 43.8938 24.3191 42.7045 23.6675Z" fill="#F6B60B"/>
<path d="M14.1922 12.7035C14.107 13.0182 14.0623 13.3477 14.0623 13.69V40.313C14.0623 40.6546 14.1065 40.9853 14.1928 41.2989L28.8539 26.6179L14.1922 12.7035Z" fill="#5778C5"/>
<path d="M28.4708 27.0015L35.8067 19.6564L19.8716 10.403C19.2924 10.0555 18.6163 9.85501 17.893 9.85501C16.1223 9.85501 14.6284 11.0618 14.1936 12.6997C14.1931 12.7013 14.1931 12.7024 14.1931 12.7038L28.4708 27.0015Z" fill="#3BAD49"/>
<path d="M63.8816 13.3755H59.9981V14.338H62.9082C62.8291 15.1235 62.5171 15.7401 61.9908 16.188C61.4646 16.636 60.7927 16.8609 59.9981 16.8609C59.1266 16.8609 58.3882 16.5568 57.783 15.9527C57.1901 15.336 56.8886 14.5735 56.8886 13.6548C56.8886 12.7362 57.1901 11.9736 57.783 11.357C58.3882 10.7529 59.1266 10.4508 59.9981 10.4508C60.4454 10.4508 60.8718 10.5278 61.2628 10.6966C61.6539 10.8653 61.9679 11.1007 62.2134 11.4029L62.9518 10.6633C62.6169 10.282 62.1926 9.99036 61.6662 9.77784C61.14 9.56531 60.5909 9.46331 59.998 9.46331C58.8353 9.46331 57.8495 9.86743 57.0444 10.6737C56.2395 11.482 55.8359 12.4778 55.8359 13.6548C55.8359 14.8318 56.2394 15.8298 57.0444 16.6361C57.8494 17.4422 58.8353 17.8465 59.998 17.8465C61.219 17.8465 62.1925 17.4548 62.9413 16.6589C63.6007 15.9965 63.9376 15.1007 63.9376 13.9799C63.9376 13.7903 63.9148 13.588 63.8816 13.3755ZM65.386 9.6423V17.6672H70.0639V16.6818H66.4156V14.1361H69.7063V13.1736H66.4156V10.6299H70.0639V9.64227L65.386 9.6423ZM76.6234 10.6299V9.6423H71.1175V10.6299H73.3558V17.6672H74.3853V10.6299H76.6234ZM81.6082 9.6423H80.5786V17.6672H81.6082V9.6423ZM88.4041 10.6299V9.6423H82.8983V10.6299H85.1363V17.6672H86.1659V10.6299H88.4041ZM98.7939 10.6861C97.9993 9.86737 97.0259 9.46324 95.8631 9.46324C94.6983 9.46324 93.7249 9.86736 92.9303 10.6736C92.1357 11.4695 91.7447 12.4673 91.7447 13.6547C91.7447 14.8421 92.1357 15.8401 92.9303 16.636C93.7249 17.4422 94.6983 17.8464 95.8631 17.8464C97.0154 17.8464 97.9992 17.4422 98.7939 16.636C99.5885 15.8402 99.9795 14.8422 99.9795 13.6547C99.9795 12.4777 99.5885 11.4818 98.7939 10.6861ZM93.6687 11.3569C94.2615 10.7528 94.9896 10.4507 95.8631 10.4507C96.7346 10.4507 97.4627 10.7528 98.0451 11.3569C98.6379 11.9506 98.929 12.7255 98.929 13.6547C98.929 14.586 98.6379 15.3588 98.0451 15.9526C97.4627 16.5567 96.7346 16.8609 95.8631 16.8609C94.9895 16.8609 94.2615 16.5567 93.6687 15.9526C93.0883 15.3464 92.7972 14.586 92.7972 13.6547C92.7972 12.7255 93.0883 11.9631 93.6687 11.3569ZM102.426 12.6694L102.382 11.1214H102.426L106.498 17.6671H107.574V9.64222H106.544V14.3379L106.588 15.8859H106.544L102.65 9.64222H101.396V17.6671H102.426V12.6694Z" fill="black" stroke="black" stroke-width="0.26666" stroke-miterlimit="10"/>
</g>
</g>
<defs>
<clipPath id="clip0_34_4491">
<rect width="179.719" height="53.333" fill="white" transform="translate(0.787109 0.333496)"/>
</clipPath>
<clipPath id="clip1_34_4491">
<rect width="179.719" height="53.333" fill="white" transform="translate(0.787109 0.333496)"/>
</clipPath>
</defs>
</svg>
