<svg width="17" height="17" viewBox="0 0 17 17" fill="none" xmlns="http://www.w3.org/2000/svg">
<g clip-path="url(#clip0_32_3321)">
<path d="M5.51009 0.135254C2.93743 0.135254 0.844727 2.22989 0.844727 4.80322V11.4699C0.844727 14.0426 2.93936 16.1353 5.51269 16.1353H12.1794C14.7521 16.1353 16.8447 14.0406 16.8447 11.4672V4.80062C16.8447 2.22795 14.7501 0.135254 12.1767 0.135254H5.51009ZM13.5114 2.80192C13.8794 2.80192 14.178 3.10058 14.178 3.46858C14.178 3.83658 13.8794 4.13525 13.5114 4.13525C13.1434 4.13525 12.8447 3.83658 12.8447 3.46858C12.8447 3.10058 13.1434 2.80192 13.5114 2.80192ZM8.84473 4.13525C11.0507 4.13525 12.8447 5.92925 12.8447 8.13525C12.8447 10.3412 11.0507 12.1353 8.84473 12.1353C6.63872 12.1353 4.84473 10.3412 4.84473 8.13525C4.84473 5.92925 6.63872 4.13525 8.84473 4.13525ZM8.84473 5.46858C8.13748 5.46858 7.45921 5.74954 6.95911 6.24964C6.45901 6.74974 6.17806 7.42801 6.17806 8.13525C6.17806 8.84254 6.45901 9.52077 6.95911 10.0209C7.45921 10.5209 8.13748 10.8019 8.84473 10.8019C9.55201 10.8019 10.2302 10.5209 10.7304 10.0209C11.2304 9.52077 11.5114 8.84254 11.5114 8.13525C11.5114 7.42801 11.2304 6.74974 10.7304 6.24964C10.2302 5.74954 9.55201 5.46858 8.84473 5.46858Z" fill="#0E0E10"/>
</g>
<defs>
<clipPath id="clip0_32_3321">
<rect width="16" height="16" fill="white" transform="translate(0.844727 0.135254)"/>
</clipPath>
</defs>
</svg>
