<svg width="30" height="30" viewBox="0 0 30 30" fill="none" xmlns="http://www.w3.org/2000/svg">
<g clip-path="url(#clip0_34_4573)">
<path d="M14.5782 0C13.3714 0 12.1355 0.223544 11.1766 0.699765L0.910346 5.8345C0.293203 6.18924 0.0032396 6.68328 0 7.29395V19.3663C0 21.3052 1.2926 23.4288 3.03712 24.297L11.5913 28.5214C13.2937 29.3686 15.8627 29.3686 17.5651 28.5214L26.069 24.297C27.8281 23.4223 29.1564 21.2712 29.1564 19.3161V7.29395C29.1645 6.70434 28.7709 6.04508 28.2445 5.8345L17.8891 0.699765C16.9285 0.223544 15.7849 0 14.5782 0ZM12.6539 3.62186C13.663 3.12134 15.4934 3.12134 16.5009 3.62186L17.4128 4.0738L8.099 8.70316L5.26435 7.29395L12.6539 3.62186ZM21.0687 5.8345L23.9164 7.26641C21.0995 8.6724 17.4404 10.519 16.5106 10.9806C15.5355 11.4649 13.6938 11.5006 12.7186 11.0146L11.7306 10.4963L21.0687 5.8345Z" fill="#FF31A5"/>
</g>
<defs>
<clipPath id="clip0_34_4573">
<rect width="29.1565" height="29.1568" fill="white"/>
</clipPath>
</defs>
</svg>
