<svg width="17" height="17" viewBox="0 0 17 17" fill="none" xmlns="http://www.w3.org/2000/svg">
<g clip-path="url(#clip0_32_3322)">
<path d="M14.9399 0.135254H2.74949C1.69806 0.135254 0.844727 0.988587 0.844727 2.04001V14.2305C0.844727 15.282 1.69806 16.1353 2.74949 16.1353H14.9399C15.9914 16.1353 16.8447 15.282 16.8447 14.2305V2.04001C16.8447 0.988587 15.9914 0.135254 14.9399 0.135254ZM5.79711 6.23049V13.4686H3.5114V6.23049H5.79711ZM3.5114 4.12382C3.5114 3.59049 3.96854 3.18287 4.65425 3.18287C5.33997 3.18287 5.77044 3.59049 5.79711 4.12382C5.79711 4.65715 5.37044 5.08763 4.65425 5.08763C3.96854 5.08763 3.5114 4.65715 3.5114 4.12382ZM14.178 13.4686H11.8923C11.8923 13.4686 11.8923 9.94096 11.8923 9.65906C11.8923 8.89715 11.5114 8.13525 10.559 8.12001H10.5285C9.60663 8.12001 9.22568 8.90477 9.22568 9.65906C9.22568 10.0057 9.22568 13.4686 9.22568 13.4686H6.93997V6.23049H9.22568V7.20573C9.22568 7.20573 9.96092 6.23049 11.439 6.23049C12.9514 6.23049 14.178 7.27049 14.178 9.37716V13.4686Z" fill="#0E0E10"/>
</g>
<defs>
<clipPath id="clip0_32_3322">
<rect width="16" height="16" fill="white" transform="translate(0.844727 0.135254)"/>
</clipPath>
</defs>
</svg>
