<svg width="21" height="16" viewBox="0 0 21 16" fill="none" xmlns="http://www.w3.org/2000/svg">
<g clip-path="url(#clip0_32_3323)">
<path d="M17.6654 2.55784C15.975 1.20878 13.302 0.980245 13.1889 0.97055C13.0104 0.955314 12.841 1.05573 12.7678 1.21778C12.765 1.22332 12.6158 1.65339 12.4714 2.06821C14.4359 2.40963 15.7707 3.16727 15.8418 3.20881C16.1752 3.40134 16.2867 3.82586 16.0922 4.1562C15.9632 4.37643 15.7295 4.4997 15.4897 4.4997C15.3704 4.4997 15.2504 4.46992 15.1403 4.40621C15.1207 4.39443 13.1625 3.28776 10.6094 3.28776C8.0556 3.28776 6.09667 4.39513 6.07714 4.40621C5.74449 4.59804 5.3177 4.48516 5.12452 4.15412C4.93136 3.82449 5.04363 3.40134 5.37559 3.20881C5.44672 3.16727 6.78638 2.40686 8.75646 2.06613C8.60444 1.64646 8.45101 1.22332 8.44822 1.21778C8.375 1.05504 8.20554 0.952544 8.027 0.97055C7.91403 0.979553 5.24099 1.20809 3.52823 2.57585C2.6328 3.39719 0.844727 8.19922 0.844727 12.351C0.844727 12.4243 0.863556 12.4957 0.900517 12.5594C2.13557 14.7132 5.5025 15.2769 6.26962 15.3011C6.2745 15.3018 6.27868 15.3018 6.28287 15.3018C6.41816 15.3018 6.54578 15.2374 6.62597 15.1287L7.45586 14.0124C5.63571 13.5767 4.67332 12.8918 4.61544 12.8496C4.30581 12.6231 4.23886 12.1896 4.4669 11.8815C4.69425 11.5746 5.12941 11.5067 5.43904 11.7319C5.46485 11.7484 7.24106 12.9832 10.608 12.9832C13.9882 12.9832 15.7596 11.7436 15.777 11.7311C16.0866 11.5082 16.5232 11.5754 16.7498 11.8841C16.9758 12.1917 16.9102 12.6224 16.6019 12.8482C16.544 12.8904 15.5865 13.574 13.7706 14.0096L14.59 15.128C14.6702 15.2374 14.7978 15.3011 14.9332 15.3011C14.938 15.3011 14.9422 15.3011 14.9464 15.3005C15.7142 15.2762 19.0811 14.7125 20.3155 12.5587C20.3524 12.495 20.3713 12.4237 20.3713 12.3502C20.3713 8.19922 18.5832 3.39719 17.6654 2.55784ZM7.81849 10.9056C7.04789 10.9056 6.42374 10.1307 6.42374 9.1743C6.42374 8.21791 7.04789 7.44297 7.81849 7.44297C8.58909 7.44297 9.21324 8.21791 9.21324 9.1743C9.21324 10.1307 8.58909 10.9056 7.81849 10.9056ZM13.3975 10.9056C12.6269 10.9056 12.0028 10.1307 12.0028 9.1743C12.0028 8.21791 12.6269 7.44297 13.3975 7.44297C14.1681 7.44297 14.7922 8.21791 14.7922 9.1743C14.7922 10.1307 14.1681 10.9056 13.3975 10.9056Z" fill="#0E0E10"/>
</g>
<defs>
<clipPath id="clip0_32_3323">
<rect width="19.5265" height="14.3333" fill="white" transform="translate(0.844727 0.968506)"/>
</clipPath>
</defs>
</svg>
