<?xml version="1.0" encoding="utf-8"?>
<!-- Generator: Adobe Illustrator 24.0.0, SVG Export Plug-In . SVG Version: 6.00 Build 0)  -->
<svg version="1.1" id="图层_1" xmlns="http://www.w3.org/2000/svg" xmlns:xlink="http://www.w3.org/1999/xlink" x="0px" y="0px"
	 viewBox="0 0 789.52 800" style="enable-background:new 0 0 789.52 800;" xml:space="preserve">
<path d="M315.41,512.56V287.45L513.26,400L315.41,512.56z M755.5,216.61c-8.71-32.78-34.36-58.6-66.93-67.36
	c-59.03-15.92-295.75-15.92-295.75-15.92s-236.72,0-295.75,15.92c-32.57,8.76-58.22,34.58-66.93,67.36
	C14.33,276.03,14.33,400,14.33,400s0,123.96,15.82,183.38c8.71,32.78,34.35,58.6,66.93,67.36c59.03,15.92,295.75,15.92,295.75,15.92
	s236.72,0,295.75-15.92c32.57-8.77,58.22-34.58,66.93-67.36C771.32,523.97,771.32,400,771.32,400S771.32,276.03,755.5,216.61"/>
</svg>
